<mxfile host="Electron" modified="2023-10-30T12:50:15.079Z" agent="Mozilla/5.0 (Windows NT 10.0; Win64; x64) AppleWebKit/537.36 (KHTML, like Gecko) draw.io/21.6.8 Chrome/114.0.5735.289 Electron/25.5.0 Safari/537.36" etag="V070HF4phcq8kMHXLXx-" version="21.6.8" type="device">
  <diagram name="Page-1" id="o0gGjXnKV2NdGaAdF3dr">
    <mxGraphModel dx="810" dy="473" grid="1" gridSize="10" guides="1" tooltips="1" connect="1" arrows="1" fold="1" page="1" pageScale="1" pageWidth="850" pageHeight="1100" math="0" shadow="0">
      <root>
        <mxCell id="0" />
        <mxCell id="1" parent="0" />
        <mxCell id="2xPWfeG-TW6VenJA9Tqd-1" value="Central Processing &lt;br&gt;Unit (CPU)" style="rounded=0;whiteSpace=wrap;html=1;fontFamily=Computer Modern;shadow=1;" vertex="1" parent="1">
          <mxGeometry x="359" y="253" width="120" height="90" as="geometry" />
        </mxCell>
        <mxCell id="2xPWfeG-TW6VenJA9Tqd-3" value="RAM (data)&lt;br&gt;volatile" style="rounded=0;whiteSpace=wrap;html=1;fontFamily=Computer Modern;shadow=1;" vertex="1" parent="1">
          <mxGeometry x="576" y="264" width="120" height="68" as="geometry" />
        </mxCell>
        <mxCell id="2xPWfeG-TW6VenJA9Tqd-4" value="Address bus" style="text;html=1;strokeColor=none;fillColor=none;align=center;verticalAlign=middle;whiteSpace=wrap;rounded=0;fontFamily=Computer Modern;" vertex="1" parent="1">
          <mxGeometry x="479" y="252" width="80" height="20" as="geometry" />
        </mxCell>
        <mxCell id="2xPWfeG-TW6VenJA9Tqd-5" value="" style="shape=flexArrow;endArrow=classic;startArrow=classic;html=1;rounded=0;exitX=1.001;exitY=0.821;exitDx=0;exitDy=0;exitPerimeter=0;fillColor=#f5f5f5;strokeColor=#0D0D0D;fontFamily=Computer Modern;" edge="1" parent="1">
          <mxGeometry width="100" height="100" relative="1" as="geometry">
            <mxPoint x="478.7600000000001" y="316.2800000000001" as="sourcePoint" />
            <mxPoint x="576" y="316" as="targetPoint" />
          </mxGeometry>
        </mxCell>
        <mxCell id="2xPWfeG-TW6VenJA9Tqd-6" value="" style="shape=flexArrow;endArrow=classic;startArrow=none;html=1;rounded=0;exitX=1.001;exitY=0.821;exitDx=0;exitDy=0;exitPerimeter=0;startFill=0;fillColor=#f5f5f5;strokeColor=#0D0D0D;fontFamily=Computer Modern;" edge="1" parent="1">
          <mxGeometry width="100" height="100" relative="1" as="geometry">
            <mxPoint x="478.7600000000001" y="276.2800000000001" as="sourcePoint" />
            <mxPoint x="576" y="276" as="targetPoint" />
          </mxGeometry>
        </mxCell>
        <mxCell id="2xPWfeG-TW6VenJA9Tqd-7" value="Data bus" style="text;html=1;strokeColor=none;fillColor=none;align=center;verticalAlign=middle;whiteSpace=wrap;rounded=0;fontFamily=Computer Modern;" vertex="1" parent="1">
          <mxGeometry x="487" y="291" width="80" height="20" as="geometry" />
        </mxCell>
        <mxCell id="2xPWfeG-TW6VenJA9Tqd-8" value="ROM (code)&lt;br&gt;non-volatile" style="rounded=0;whiteSpace=wrap;html=1;fontFamily=Computer Modern;shadow=1;" vertex="1" parent="1">
          <mxGeometry x="142" y="264" width="120" height="68" as="geometry" />
        </mxCell>
        <mxCell id="2xPWfeG-TW6VenJA9Tqd-9" value="Address bus" style="text;html=1;strokeColor=none;fillColor=none;align=center;verticalAlign=middle;whiteSpace=wrap;rounded=0;fontFamily=Computer Modern;" vertex="1" parent="1">
          <mxGeometry x="282" y="254" width="80" height="20" as="geometry" />
        </mxCell>
        <mxCell id="2xPWfeG-TW6VenJA9Tqd-10" value="" style="shape=flexArrow;endArrow=classic;startArrow=classic;html=1;rounded=0;exitX=1.001;exitY=0.821;exitDx=0;exitDy=0;exitPerimeter=0;fillColor=#f5f5f5;strokeColor=#0D0D0D;fontFamily=Computer Modern;" edge="1" parent="1">
          <mxGeometry width="100" height="100" relative="1" as="geometry">
            <mxPoint x="261.7600000000001" y="319.2800000000001" as="sourcePoint" />
            <mxPoint x="359" y="319" as="targetPoint" />
          </mxGeometry>
        </mxCell>
        <mxCell id="2xPWfeG-TW6VenJA9Tqd-11" value="" style="shape=flexArrow;endArrow=classic;startArrow=none;html=1;rounded=0;startFill=0;fillColor=#f5f5f5;strokeColor=#0D0D0D;entryX=1;entryY=0.25;entryDx=0;entryDy=0;exitX=0.003;exitY=0.307;exitDx=0;exitDy=0;exitPerimeter=0;fontFamily=Computer Modern;" edge="1" parent="1" source="2xPWfeG-TW6VenJA9Tqd-1" target="2xPWfeG-TW6VenJA9Tqd-8">
          <mxGeometry width="100" height="100" relative="1" as="geometry">
            <mxPoint x="352" y="280" as="sourcePoint" />
            <mxPoint x="322" y="230" as="targetPoint" />
          </mxGeometry>
        </mxCell>
        <mxCell id="2xPWfeG-TW6VenJA9Tqd-12" value="Data bus" style="text;html=1;strokeColor=none;fillColor=none;align=center;verticalAlign=middle;whiteSpace=wrap;rounded=0;fontFamily=Computer Modern;" vertex="1" parent="1">
          <mxGeometry x="270" y="294" width="80" height="20" as="geometry" />
        </mxCell>
      </root>
    </mxGraphModel>
  </diagram>
</mxfile>
